<svg width="29" height="15" viewBox="0 0 29 15" fill="none" xmlns="http://www.w3.org/2000/svg">
<path d="M21.75 0.267334H7.2674C3.248 0.267334 0 3.52113 0 7.45353V7.48253C0 11.4903 3.2538 14.7383 7.2616 14.7325H21.7442C25.7462 14.7325 28.9884 11.4903 28.9884 7.45933C28.9884 3.42833 25.7462 0.267334 21.7442 0.267334H21.75ZM8.8218 12.8591C7.6444 12.8591 7.1282 12.7083 6.0958 12.4705L6.2872 10.5681C6.9484 10.9567 7.888 11.1655 8.6942 11.1655C9.5004 11.1655 10.585 10.7595 10.585 9.81413C10.585 7.81313 5.9218 8.64253 5.9218 5.15093C5.9218 3.21373 7.3486 1.92613 9.628 1.92033C10.5328 1.92033 11.4028 2.04793 12.1452 2.30893L11.9538 4.03733C11.4376 3.78213 10.5328 3.59073 9.7962 3.59073C9.0596 3.59073 8.1548 3.93293 8.1548 4.96533C8.1548 6.88513 12.7832 6.13113 12.7832 9.65753C12.7832 11.6295 11.1534 12.8707 8.8334 12.8707L8.8218 12.8591ZM21.315 12.7025H19.2154V4.50713L17.4464 5.97453L16.3792 4.57093L19.4764 2.11753H21.315V12.7025Z" fill="#95559A"/>
</svg>
