<svg width="29" height="15" viewBox="0 0 29 15" fill="none" xmlns="http://www.w3.org/2000/svg">
<path d="M21.75 0.261719H7.2674C3.248 0.261719 0 3.52132 0 7.45952V7.48852C0 11.4963 3.2538 14.7385 7.2616 14.7385H21.7442C25.7462 14.7385 28.9884 11.4963 28.9884 7.46532C28.9884 3.43432 25.7462 0.267518 21.7442 0.267518L21.75 0.261719ZM8.8798 12.8593C7.7024 12.8593 7.1862 12.7143 6.1538 12.4707L6.3452 10.5683C7.0064 10.9569 7.946 11.1657 8.7522 11.1657C9.5584 11.1657 10.643 10.7597 10.643 9.81432C10.643 7.81332 5.9798 8.63692 5.9798 5.15112C5.9798 3.21392 7.4008 1.92632 9.6918 1.92632C10.5966 1.92632 11.4666 2.05392 12.209 2.31492L12.0176 4.04332C11.5014 3.78232 10.5966 3.59672 9.86 3.59672C9.1234 3.59672 8.2186 3.93312 8.2186 4.97132C8.2186 6.89112 12.847 6.13712 12.847 9.66352C12.8354 11.6297 11.2056 12.8709 8.8856 12.8709L8.8798 12.8593ZM18.7978 12.8593C17.9568 12.8593 17.1158 12.7665 16.298 12.6041L16.3792 10.6669C16.878 10.8757 17.603 11.2121 18.5252 11.2121C19.6562 11.2121 20.764 10.7133 20.764 9.33872C20.764 7.96412 19.5866 7.52912 18.357 7.52912C17.7132 7.52912 17.0752 7.60452 16.4546 7.76692L16.5532 2.11772H22.649V3.68372H18.5832L18.5194 5.93992C18.8384 5.87612 19.1632 5.84132 19.488 5.84132C20.9728 5.84132 22.91 6.50252 22.91 9.24012C22.91 11.2643 21.4948 12.8419 18.7978 12.8419V12.8593Z" fill="#F47921"/>
</svg>
