<svg width="26" height="16" viewBox="0 0 26 16" fill="none" xmlns="http://www.w3.org/2000/svg">
<rect width="26" height="15" transform="translate(0 0.5)" fill="#E80029"/>
<path d="M13.3391 12.5H11.7965V5.98296H11.7726L9.82349 12.5H8.44833L6.48724 5.98296H6.46332V12.5H4.94467V3.91424H7.24059L9.10601 10.3356H9.12993L11.0671 3.91424H13.3391V12.5ZM20.9366 10.1682C20.9366 11.7467 19.6571 12.6435 17.696 12.6435C15.699 12.6435 14.4793 11.7227 14.4793 10.2041C14.4793 9.39095 14.9217 8.62565 16.273 8.06363V8.03971C15.4718 7.6451 14.838 7.09504 14.838 6.03079C14.838 4.72738 15.8784 3.77075 17.7318 3.77075C19.6332 3.77075 20.6257 4.61976 20.6257 5.95904C20.6257 6.79609 20.1593 7.46573 19.1907 7.89622V7.92013C20.4463 8.45824 20.9366 9.18767 20.9366 10.1682ZM19.4418 10.1563C19.4418 9.28333 18.5689 8.93655 17.6123 8.58977C16.6676 8.93655 15.974 9.43878 15.974 10.1443C15.974 10.9335 16.6676 11.4238 17.696 11.4238C18.8081 11.4238 19.4418 10.9216 19.4418 10.1563ZM19.1907 6.06666C19.1907 5.39702 18.6765 4.93066 17.7318 4.93066C16.7752 4.93066 16.2849 5.44485 16.2849 6.07862C16.2849 6.82001 17.0622 7.13091 17.9471 7.44182C18.6287 7.15483 19.1907 6.78413 19.1907 6.06666Z" fill="white"/>
</svg>
