<svg width="29" height="15" viewBox="0 0 29 15" fill="none" xmlns="http://www.w3.org/2000/svg">
<path d="M21.75 0.261719H7.26743C3.24803 0.261719 3.10855e-05 3.52132 3.10855e-05 7.45952C-0.0115689 11.4673 3.22483 14.7211 7.23263 14.7385C7.24423 14.7385 7.25003 14.7385 7.26163 14.7385H21.75C25.752 14.7385 28.9942 11.4963 28.9942 7.45952C28.9942 3.52132 25.752 0.261719 21.75 0.261719ZM8.82763 12.8651C7.65023 12.8651 7.13403 12.7201 6.10163 12.4765L6.29303 10.5741C6.95423 10.9627 7.88803 11.1715 8.69423 11.1715C9.50043 11.1715 10.585 10.7655 10.585 9.81432C10.585 7.81332 5.92183 8.63692 5.92183 5.15112C5.92183 3.21392 7.34283 1.92632 9.63383 1.92632C10.5386 1.92632 11.4086 2.05392 12.151 2.31492L11.9596 4.04332C11.4434 3.78812 10.5386 3.59092 9.79623 3.59092C9.05383 3.59092 8.14903 3.92732 8.14903 4.95972C8.14903 6.87952 12.7774 6.11972 12.7774 9.65772C12.7774 11.6239 11.1476 12.8651 8.82763 12.8651ZM22.8462 12.7027H15.8108V10.9105C16.7794 9.97672 20.4102 6.97232 20.4102 5.02352C20.4102 4.05492 19.5402 3.58512 18.6528 3.58512C17.7654 3.58512 16.9244 3.97372 16.2168 4.45512L16.0544 2.71512C17.0056 2.18152 18.1018 1.93792 19.2038 1.93792C21.2222 1.93792 22.5272 2.97032 22.5272 5.01772C22.5272 7.24492 20.2536 9.33872 18.5252 11.0207H22.852V12.6969L22.8462 12.7027Z" fill="#587208"/>
</svg>
