<svg width="33" height="16" viewBox="0 0 33 16" fill="none" xmlns="http://www.w3.org/2000/svg">
<rect width="33" height="15" transform="translate(0 0.5)" fill="#E80029"/>
<path d="M13.3391 12.5H11.7965V5.98296H11.7726L9.82349 12.5H8.44833L6.48724 5.98296H6.46332V12.5H4.94467V3.91424H7.24059L9.10601 10.3356H9.12993L11.0671 3.91424H13.3391V12.5ZM20.0756 12.5H15.699V11.2564H17.11V5.39702L15.4359 5.62422V4.61976L17.6362 3.91424H18.6646V11.2564H20.0756V12.5ZM27.3964 12.5H21.5849V11.7108C21.5849 10.7302 22.2665 9.97689 23.0557 9.34312C24.2993 8.3267 25.83 7.69293 25.83 6.35365C25.83 5.50464 25.3397 5.05024 24.5385 5.05024C23.7732 5.05024 23.2351 5.48072 23.0198 6.52106L21.6806 6.23407C21.9197 4.65563 23.0079 3.77075 24.6581 3.77075C26.4159 3.77075 27.3606 4.72738 27.3606 6.25799C27.3606 8.27887 25.1723 9.2355 24.0841 10.1563C23.6656 10.503 23.3786 10.8737 23.3666 11.2085H27.3964V12.5Z" fill="white"/>
</svg>
