<svg width="33" height="16" viewBox="0 0 33 16" fill="none" xmlns="http://www.w3.org/2000/svg">
<rect width="33" height="15" transform="translate(0 0.5)" fill="#E80029"/>
<path d="M13.3391 12.5H11.7965V5.98296H11.7726L9.82349 12.5H8.44833L6.48724 5.98296H6.46332V12.5H4.94467V3.91424H7.24059L9.10601 10.3356H9.12993L11.0671 3.91424H13.3391V12.5ZM20.0756 12.5H15.699V11.2564H17.11V5.39702L15.4359 5.62422V4.61976L17.6362 3.91424H18.6646V11.2564H20.0756V12.5ZM24.5863 12.6435C22.6611 12.6435 21.561 11.1129 21.561 8.25495C21.561 5.43289 22.5894 3.77075 24.5863 3.77075C26.5713 3.77075 27.6117 5.43289 27.6117 8.25495C27.6117 11.1129 26.5115 12.6435 24.5863 12.6435ZM24.5863 11.3999C25.5669 11.3999 26.0452 10.3595 26.0452 8.25495C26.0452 6.06666 25.5669 5.00241 24.5863 5.00241C23.6058 5.00241 23.1275 6.06666 23.1275 8.25495C23.1275 10.3595 23.6058 11.3999 24.5863 11.3999Z" fill="white"/>
</svg>
