<svg width="29" height="15" viewBox="0 0 29 15" fill="none" xmlns="http://www.w3.org/2000/svg">
<path d="M21.75 0.261719H7.2674C3.248 0.261719 0 3.52132 0 7.45952V7.48852C0 11.4963 3.2538 14.7385 7.2616 14.7385H21.7442C25.7462 14.7385 28.9884 11.4963 28.9884 7.46532C28.9884 3.43432 25.7462 0.267518 21.7442 0.267518L21.75 0.261719ZM8.8798 12.8593C7.7024 12.8593 7.1862 12.7143 6.1538 12.4707L6.3452 10.5683C7.0064 10.9569 7.946 11.1657 8.7522 11.1657C9.5584 11.1657 10.643 10.7597 10.643 9.81432C10.643 7.81332 5.9798 8.63692 5.9798 5.15112C5.9798 3.21392 7.4008 1.92632 9.6918 1.92632C10.5966 1.92632 11.4666 2.05392 12.209 2.31492L12.0176 4.04332C11.5014 3.78232 10.5966 3.59672 9.86 3.59672C9.1234 3.59672 8.2186 3.93312 8.2186 4.97132C8.2186 6.89112 12.847 6.13712 12.847 9.66352C12.8354 11.6297 11.2056 12.8709 8.8856 12.8709L8.8798 12.8593ZM22.7534 3.84032L18.995 12.6969H16.6692L20.6074 3.74172H15.9094V2.11192H22.7534V3.84032Z" fill="#95559A"/>
</svg>
