<svg xmlns="http://www.w3.org/2000/svg" viewBox="-0.5 -0.5 24 24" id="Person-Walking--Streamline-Font-Awesome.svg" height="24" width="24"><desc>Person Walking Streamline Icon: https://streamlinehq.com</desc><!--! Font Awesome Free 6.5.2 by @fontawesome - https://fontawesome.com License - https://fontawesome.com/license/free (Icons: CC BY 4.0, Fonts: SIL OFL 1.1, Code: MIT License) Copyright 2024 Fonticons, Inc.--><path d="M11.499791562499999 2.3432256249999996c-0.0009487499999999999 -1.6267612499999997 1.7594784374999999 -2.6445184375 3.1687746874999996 -1.8319571874999998 0.6548171875 0.37755218749999997 1.0581221875 1.076098125 1.0576765625 1.8319571874999998 0.0009487499999999999 1.6267684374999998 -1.7594784374999999 2.6445184375 -3.1687746874999996 1.8319571874999998 -0.6548171875 -0.37754499999999996 -1.0581221875 -1.0760909374999998 -1.0576765625 -1.8319571874999998Zm-1.4748606249999998 6.661073124999999c-0.0440234375 0.017609375 -0.08364812499999999 0.03521875 -0.1276715625 0.052835312499999995l-0.35220906249999995 0.154085625c-0.7220203125 0.3213890625 -1.2767371875 0.93334 -1.5276887499999998 1.6817815624999999l-0.1144609375 0.3433971875c-0.246545625 0.7396296874999999 -1.043409375 1.1358621875 -1.7830390624999999 0.8893165625s-1.1358621875 -1.043409375 -0.8893165625 -1.7830390624999999l0.11446812499999999 -0.3433971875c0.50188875 -1.5012746874999998 1.611336875 -2.72518375 3.0553774999999996 -3.3679618749999998l0.35220187499999994 -0.154085625c0.915730625 -0.40503718749999995 1.9063046874999998 -0.6163568749999999 2.9100893749999996 -0.6163568749999999 1.9635459374999997 0 3.7333743749999995 1.179885625 4.4862075 2.98933875l0.6779968749999999 1.6245403124999998 0.9421446874999999 0.4710759375c0.69560625 0.347803125 0.9773706249999999 1.1930890625 0.6295675 1.8886953125s-1.1930962499999997 0.9773706249999999 -1.8886953125 0.6295675l-1.179885625 -0.5855440624999999c-0.45346656249999995 -0.22892906249999997 -0.8100743749999999 -0.6075521875 -1.0037846874999998 -1.0786209375l-0.4226465625 -1.012589375 -0.8496918749999999 2.8836753125 2.179264375 2.377380625c0.23773374999999997 0.25974906249999996 0.40503718749999995 0.5723334375 0.4930840624999999 0.915730625l1.012589375 4.05475625c0.1893115625 0.7528403124999999 -0.26855375 1.5188840625 -1.0257928125 1.7081956249999999s-1.5188840625 -0.26855375 -1.7081956249999999 -1.0258l-0.9685659374999999 -3.878648125 -3.1126043749999996 -3.3943759375c-0.6515828124999999 -0.7088096875 -0.8937225 -1.6993909374999998 -0.647176875 -2.628325l0.7440284374999999 -2.7956284374999996Zm-2.544676875 8.7478846875 1.10063625 -2.7471990624999996c0.0924528125 0.1320775 0.19811625 0.2553503125 0.30817843749999996 0.378623125l1.7918437499999997 1.9547340624999998 -0.6383721875 1.5937275c-0.10566343749999998 0.264155 -0.264155 0.5062946875 -0.46667 0.7088096875l-2.7163790625 2.7163790625c-0.550318125 0.550318125 -1.444040625 0.550318125 -1.9943587499999997 0s-0.550318125 -1.4440334375 0 -1.9943587499999997l2.6151215625 -2.6107156249999997Z" fill="#000000" stroke-width="1"></path></svg>