<svg width="24" height="16" viewBox="0 0 24 16" fill="none" xmlns="http://www.w3.org/2000/svg">
<path d="M0 0.888916V15.1111H24V0.888916H0ZM11.8291 9.35046C11.8291 12.1425 10.2621 13.265 7.57835 13.265C4.89459 13.265 3.32764 12.1425 3.32764 9.35046V2.71228H5.40171V8.71798C5.40171 10.5072 5.97151 11.6638 7.57265 11.6638C9.17379 11.6638 9.7151 10.5072 9.7151 8.71798V2.71228H11.8234V9.35615L11.8291 9.35046ZM17.7778 13.3163C15.037 13.3163 14.3077 11.1909 14.3077 8.45017C14.3077 5.70943 15.2934 2.56983 18.6667 2.56983C19.4416 2.56983 20.1425 2.66669 20.8376 2.9231L20.5983 4.61541C20.0285 4.34761 19.4587 4.18806 18.7578 4.18806C16.9516 4.18806 16.3647 5.88607 16.302 7.42453L16.3191 7.47011C16.8262 6.70658 17.4758 6.39319 18.3647 6.39319C20.3305 6.39319 21.4074 7.61256 21.4074 9.57838C21.4074 11.7664 20.2051 13.3163 17.7778 13.3163Z" fill="#95559A"/>
<path d="M17.8692 7.94287C16.8549 7.94287 16.4561 8.87734 16.4561 9.74914C16.4561 10.8773 16.8663 11.7605 17.9147 11.7605C18.8834 11.7605 19.2766 10.809 19.2766 9.89159C19.2766 8.87734 18.8777 7.94287 17.8635 7.94287H17.8692Z" fill="#95559A"/>
</svg>
