<svg width="20" height="24" viewBox="0 0 20 24" fill="none" xmlns="http://www.w3.org/2000/svg">
<g clip-path="url(#clip0_2384_74216)">
<path d="M5.06865 10.8047C5.06865 10.2671 4.72785 10.0559 4.20945 10.0559H3.86865V11.5391H4.20945C4.72785 11.5391 5.06865 11.2367 5.06865 10.8095V10.8047Z" fill="#95559A"/>
<path d="M9.8688 2.1311C4.4256 2.1311 0 6.5567 0 11.9999C0 17.4431 4.4256 21.8687 9.8688 21.8687C15.312 21.8687 19.7376 17.4431 19.7376 11.9999C19.7376 6.5567 15.312 2.1311 9.8688 2.1311ZM4.3008 15.4079H2.1792V8.8271H4.464C6.0864 8.8271 6.768 9.5423 6.768 10.4879C6.768 11.3231 6.3744 11.7551 5.592 12.0047C6.4128 12.1295 6.8208 12.6815 6.8208 13.5599C6.8208 14.8079 5.9808 15.4127 4.3056 15.4127L4.3008 15.4079ZM12.7968 12.9983C12.7968 14.5679 11.9232 15.4799 10.3008 15.4799C8.5872 15.4799 7.7856 14.5871 7.7856 13.2479V8.8223H9.5712V13.0319C9.5712 13.7615 9.8208 14.1023 10.3392 14.1023C10.9104 14.1023 11.1408 13.7807 11.1408 12.9071V8.8223H12.8016V12.9983H12.7968ZM15.6336 15.4799C15.024 15.4751 14.4192 15.4031 13.8288 15.2687L13.92 13.8239C14.376 14.0255 14.8704 14.1215 15.3648 14.1119C15.9168 14.1119 16.2912 13.9343 16.2912 13.5407C16.2912 13.1471 16.0944 12.9503 15.1152 12.6143C14.1696 12.2927 13.704 11.6303 13.704 10.6847C13.704 9.5087 14.6496 8.7551 16.0752 8.7551C16.6512 8.7599 17.2272 8.8319 17.7888 8.9711L17.7168 10.2575C17.2971 10.0598 16.8413 9.9503 16.3776 9.9359C15.7872 9.9359 15.5232 10.1855 15.5232 10.5407C15.5232 10.8815 15.7392 11.1119 16.6128 11.4527C17.7168 11.8799 18.1296 12.4511 18.1296 13.3439C18.1296 14.6303 17.2032 15.4847 15.6336 15.4847V15.4799Z" fill="#95559A"/>
<path d="M4.41122 12.624H3.87842V14.2128H4.37762C4.89602 14.2128 5.16482 13.9296 5.16482 13.4304C5.16482 12.9312 4.96802 12.6288 4.41602 12.6288L4.41122 12.624Z" fill="#95559A"/>
</g>
<defs>
<clipPath id="clip0_2384_74216">
<rect width="19.7376" height="24" fill="white"/>
</clipPath>
</defs>
</svg>
