<svg width="26" height="16" viewBox="0 0 26 16" fill="none" xmlns="http://www.w3.org/2000/svg">
<rect width="26" height="15" transform="translate(0 0.5)" fill="#E80029"/>
<path d="M13.3391 12.5H11.7965V5.98296H11.7726L9.82349 12.5H8.44833L6.48724 5.98296H6.46332V12.5H4.94467V3.91424H7.24059L9.10601 10.3356H9.12993L11.0671 3.91424H13.3391V12.5ZM20.7094 9.58228C20.7094 11.5075 19.4179 12.6435 17.5286 12.6435C16.1893 12.6435 15.2446 12.2489 14.5271 10.9933L15.8186 10.3117C16.2132 11.1248 16.7393 11.376 17.4807 11.376C18.5689 11.376 19.1429 10.6226 19.1429 9.59424C19.1429 8.56586 18.5809 7.93209 17.5884 7.93209C16.9068 7.93209 16.4882 8.25495 16.2012 8.7811L14.9217 8.54194L15.2566 3.91424H20.1115V5.20569H16.4045L16.2491 7.31028H16.273C16.8231 6.86784 17.3612 6.71239 18.0069 6.71239C19.7169 6.71239 20.7094 7.82447 20.7094 9.58228Z" fill="white"/>
</svg>
