<svg version="1.1" id="Ebene_1" xmlns="http://www.w3.org/2000/svg" xmlns:xlink="http://www.w3.org/1999/xlink" x="0px" y="0px" viewBox="0 0 144.8 114.9" style="enable-background:new 0 0 144.8 114.9;" xml:space="preserve"><style type="text/css"> .st0{clip-path:url(#SVGID_2_);} .st1{clip-path:url(#SVGID_2_);fill:#FFFFFF;} .st2{fill:#FFFFFF;} .st3{clip-path:url(#SVGID_4_);} .st4{clip-path:url(#SVGID_6_);fill:#FFFFFF;} .st5{clip-path:url(#SVGID_6_);} .st6{clip-path:url(#SVGID_8_);} .st7{clip-path:url(#SVGID_10_);} </style><g><polygon class="st2" points="0.8,80.5 0.8,91.5 7.1,91.5 7.1,90.2 2.3,90.2 2.3,80.5 "></polygon><path class="st2" d="M13.3,91.3c0.4-0.2,0.8-0.3,1-0.6l-0.6-1c-0.5,0.5-1.2,0.7-2,0.7c-0.7,0-1.3-0.2-1.7-0.6 c-0.5-0.5-0.7-1.2-0.7-2.1h5.6c0.1-0.3,0.1-0.5,0.1-0.8c0-1-0.3-1.8-0.9-2.4c-0.6-0.6-1.5-0.9-2.6-0.9c-1,0-1.8,0.3-2.5,1 c-0.8,0.8-1.2,1.8-1.2,3.1c0,1.2,0.4,2.2,1.1,3c0.7,0.7,1.5,1,2.5,1C12.1,91.6,12.7,91.5,13.3,91.3z M10,85.3 c0.4-0.4,0.9-0.6,1.5-0.6c0.7,0,1.2,0.2,1.6,0.6c0.4,0.4,0.5,0.8,0.5,1.4H9.3C9.4,86.1,9.6,85.7,10,85.3z"></path><polygon class="st2" points="16.5,84.9 17.6,84.9 17.6,91.5 19,91.5 19,83.7 16.5,83.7 "></polygon><path class="st2" d="M18.2,80.8c-0.2,0-0.4,0.1-0.6,0.2c-0.2,0.2-0.2,0.4-0.2,0.6c0,0.2,0.1,0.4,0.3,0.6c0.2,0.2,0.4,0.3,0.6,0.3 c0.2,0,0.4-0.1,0.6-0.3c0.2-0.2,0.3-0.4,0.3-0.6c0-0.2-0.1-0.4-0.3-0.6C18.6,80.8,18.4,80.8,18.2,80.8z"></path><path class="st2" d="M21.7,80.4v11.2h0.7l0.5-0.7c0.2,0.2,0.5,0.4,0.8,0.5c0.4,0.1,0.7,0.2,1.1,0.2c1.1,0,2-0.4,2.7-1.1 c0.7-0.7,1-1.8,1-3.1c0-1.1-0.3-2.1-1-2.8c-0.7-0.7-1.5-1.1-2.6-1.1c-0.4,0-0.7,0.1-1.1,0.2c-0.4,0.1-0.6,0.3-0.7,0.5v-3.8H21.7z M23.7,84.9c0.3-0.1,0.5-0.2,0.7-0.2c0.8,0,1.4,0.2,1.9,0.7c0.5,0.5,0.7,1.2,0.7,2.1c0,1.1-0.2,1.8-0.6,2.3c-0.4,0.5-1.1,0.7-2,0.7 c-0.2,0-0.4-0.1-0.8-0.3c-0.3-0.2-0.5-0.3-0.5-0.4v-4.5C23.2,85.2,23.3,85.1,23.7,84.9z"></path><path class="st2" d="M32.5,85c0.3-0.2,0.7-0.3,1-0.3c0.6,0,1,0.2,1.3,0.5c0.2,0.3,0.4,0.9,0.4,1.7v4.5h1.4v-4.8 c0-2.1-0.9-3.1-2.6-3.1c-1,0-1.8,0.4-2.2,1.2l-0.4-1h-0.9v7.8h1.4v-5.8C31.9,85.4,32.2,85.2,32.5,85z"></path><path class="st2" d="M40.6,82.2c0.2-0.2,0.3-0.4,0.3-0.6c0-0.2-0.1-0.4-0.3-0.6c-0.2-0.2-0.4-0.2-0.6-0.2c-0.2,0-0.4,0.1-0.6,0.2 c-0.2,0.2-0.2,0.4-0.2,0.6c0,0.2,0.1,0.4,0.2,0.6c0.2,0.2,0.4,0.3,0.6,0.3C40.2,82.5,40.4,82.4,40.6,82.2z"></path><polygon class="st2" points="40.8,91.5 40.8,83.7 38.3,83.7 38.3,84.9 39.4,84.9 39.4,91.5 "></polygon><polygon class="st2" points="43.1,91.5 49.6,91.5 49.6,90.3 45.3,90.3 49.6,84.1 49.6,83.7 43.2,83.7 43.2,84.9 47.5,84.9 43.1,91.1 "></polygon><path class="st2" d="M5.5,102.9H7v2.5c-0.5,0.5-1.1,0.7-1.9,0.7c-1.1,0-2-0.4-2.6-1.1c-0.6-0.8-0.9-1.7-0.9-3c0-1.3,0.3-2.3,1-3.1 c0.6-0.8,1.5-1.2,2.6-1.2c0.7,0,1.4,0.3,2.2,0.8l0.6-1.2c-0.7-0.6-1.6-0.9-2.7-0.9c-1.6,0-2.8,0.5-3.8,1.5c-0.9,1-1.4,2.4-1.4,4 c0,1.7,0.4,3,1.3,4c0.9,1,2,1.5,3.5,1.5c0.7,0,1.3-0.1,2-0.3c0.7-0.2,1.2-0.5,1.6-0.8v-4.6H5.5V102.9z"></path><path class="st2" d="M14.1,99.3c-1,0-1.8,0.3-2.5,1c-0.8,0.8-1.2,1.8-1.2,3.1c0,1.2,0.4,2.2,1.1,3c0.7,0.7,1.5,1,2.5,1 c0.7,0,1.3-0.1,1.8-0.3c0.4-0.2,0.8-0.3,1-0.6l-0.6-1c-0.5,0.5-1.2,0.7-2,0.7c-0.7,0-1.3-0.2-1.7-0.6c-0.5-0.5-0.8-1.2-0.8-2.1h5.6 c0.1-0.3,0.1-0.5,0.1-0.8c0-1-0.3-1.8-0.9-2.4C16.1,99.6,15.2,99.3,14.1,99.3z M11.9,102.5c0.1-0.6,0.3-1,0.7-1.4 c0.4-0.4,0.9-0.6,1.6-0.6c0.7,0,1.2,0.2,1.6,0.6c0.3,0.4,0.5,0.8,0.5,1.4H11.9z"></path><path class="st2" d="M27.2,99.3c-0.4,0-0.9,0.1-1.3,0.3c-0.4,0.2-0.7,0.4-0.9,0.7c-0.4-0.7-1.2-1-2.3-1c-0.8,0-1.5,0.3-2,1.1 l-0.5-0.9h-0.9v7.8h1.4v-5.8c0.1-0.3,0.4-0.5,0.7-0.7c0.3-0.2,0.6-0.3,0.9-0.3c0.5,0,0.9,0.1,1.1,0.3c0.3,0.2,0.4,0.5,0.4,0.9v5.5 h1.4v-5.8c0.1-0.3,0.3-0.5,0.6-0.7c0.3-0.2,0.6-0.3,0.9-0.3c1.1,0,1.6,0.6,1.6,1.8v4.9h1.4V102c0-0.9-0.2-1.5-0.7-2 C28.7,99.6,28,99.3,27.2,99.3z"></path><path class="st2" d="M35.6,99.3c-1,0-1.8,0.3-2.5,1c-0.8,0.8-1.2,1.8-1.2,3.1c0,1.2,0.4,2.2,1.1,3c0.7,0.7,1.5,1,2.5,1 c0.7,0,1.3-0.1,1.9-0.3c0.4-0.2,0.8-0.3,1-0.6l-0.6-1c-0.5,0.5-1.2,0.7-2,0.7c-0.7,0-1.3-0.2-1.7-0.6c-0.5-0.5-0.8-1.2-0.8-2.1H39 c0.1-0.3,0.1-0.5,0.1-0.8c0-1-0.3-1.8-0.9-2.4C37.6,99.6,36.7,99.3,35.6,99.3z M33.4,102.5c0.1-0.6,0.3-1,0.7-1.4 c0.4-0.4,0.9-0.6,1.6-0.6c0.7,0,1.2,0.2,1.6,0.6c0.3,0.4,0.5,0.8,0.5,1.4H33.4z"></path><polygon class="st2" points="40.7,100.6 41.8,100.6 41.8,107.3 43.1,107.3 43.1,99.5 40.7,99.5 "></polygon><path class="st2" d="M42.3,96.5c-0.2,0-0.4,0.1-0.6,0.2c-0.2,0.2-0.2,0.4-0.2,0.6c0,0.2,0.1,0.4,0.2,0.6c0.2,0.2,0.4,0.3,0.6,0.3 c0.2,0,0.4-0.1,0.6-0.3c0.2-0.2,0.3-0.4,0.3-0.6c0-0.2-0.1-0.4-0.3-0.6C42.8,96.6,42.5,96.5,42.3,96.5z"></path><path class="st2" d="M49.6,99.3c-1,0-1.8,0.4-2.2,1.1l-0.4-1H46v7.8h1.4v-5.8c0.2-0.3,0.4-0.5,0.8-0.7c0.3-0.2,0.7-0.3,1-0.3 c0.6,0,1,0.2,1.3,0.5c0.2,0.3,0.4,0.9,0.4,1.7v4.5h1.4v-4.8C52.2,100.4,51.3,99.3,49.6,99.3z"></path><path class="st2" d="M57.9,102.9l-1-0.5c-0.6-0.3-0.9-0.6-0.9-1.1c0-0.2,0.1-0.4,0.3-0.6c0.2-0.2,0.5-0.2,0.8-0.2 c0.6,0,1.1,0.2,1.7,0.7l0.4-1.3c-0.9-0.4-1.6-0.5-2.1-0.5c-0.8,0-1.4,0.2-1.8,0.5c-0.5,0.4-0.7,0.9-0.7,1.5c0,0.2,0,0.5,0.1,0.7 c0.1,0.2,0.2,0.4,0.4,0.6c0.2,0.2,0.4,0.4,0.6,0.5c0.2,0.2,0.7,0.4,1.3,0.7c0.8,0.4,1.2,0.8,1.2,1.3c0,0.7-0.4,1.1-1.3,1.1 c-0.5,0-1.1-0.3-1.9-0.8l-0.5,1.3c0.7,0.4,1.5,0.6,2.3,0.6c0.9,0,1.5-0.2,2-0.6c0.5-0.4,0.7-0.9,0.7-1.6c0-0.5-0.1-1-0.4-1.3 C58.9,103.5,58.5,103.2,57.9,102.9z"></path><path class="st2" d="M64.9,106.2c-0.8,0-1.4-0.2-1.9-0.7c-0.4-0.5-0.7-1.2-0.7-2.1c0-0.9,0.2-1.6,0.7-2.2c0.4-0.5,1-0.8,1.8-0.8 c0.3,0,0.7,0.1,1.1,0.2c0.4,0.1,0.6,0.3,0.7,0.4l0.7-1c-0.2-0.2-0.6-0.4-1-0.5c-0.5-0.2-0.9-0.3-1.3-0.3c-1.3,0-2.2,0.4-3,1.1 c-0.7,0.8-1.1,1.8-1.1,3c0,1.2,0.3,2.2,1,2.9c0.7,0.7,1.6,1.1,2.6,1.1c1.1,0,2-0.2,2.8-0.7l-0.5-1.2 C66.1,106,65.5,106.2,64.9,106.2z"></path><path class="st2" d="M72.9,99.3c-0.4,0-0.9,0.1-1.3,0.3c-0.4,0.2-0.7,0.4-0.9,0.7v-4.1h-1.4v11h1.4v-5.8c0.2-0.3,0.4-0.5,0.8-0.7 c0.3-0.2,0.7-0.3,1-0.3c0.5,0,0.9,0.2,1.2,0.5c0.3,0.3,0.4,0.8,0.4,1.4v4.9h1.4v-4.9c0-0.9-0.2-1.7-0.7-2.2 C74.3,99.6,73.7,99.3,72.9,99.3z"></path><path class="st2" d="M83.6,105.3v-2.8c0-1.1-0.3-1.9-0.8-2.5c-0.5-0.5-1.3-0.8-2.5-0.8c-0.4,0-0.9,0.1-1.3,0.2 c-0.5,0.2-0.8,0.3-1.1,0.5l0.6,1.2c0.5-0.5,1.1-0.7,2-0.7c1.1,0,1.7,0.6,1.7,1.9c-0.4-0.1-0.7-0.2-1-0.2c-1.1,0-2,0.3-2.7,0.8 c-0.7,0.5-1,1.2-1,2c0,0.7,0.2,1.2,0.7,1.7c0.5,0.4,1,0.7,1.6,0.7c1.1,0,2-0.3,2.5-1c0.1,0.4,0.3,0.6,0.6,0.8 c0.3,0.2,0.7,0.2,1.3,0.2v-0.7C83.8,106.5,83.6,106,83.6,105.3z M82.2,105.3c-0.5,0.7-1.2,1-1.9,1c-1,0-1.4-0.4-1.4-1.2 c0-0.5,0.2-0.9,0.7-1.3c0.4-0.4,1-0.5,1.7-0.5c0.2,0,0.5,0,0.9,0.1V105.3z"></path><path class="st2" d="M87.3,97.1c-0.5,0.6-0.7,1.3-0.7,2.3h-1.1v1.2h1.1v6.6H88v-6.6h1.6v-1.2H88c0-0.1,0-0.3,0-0.4 c0-0.5,0.1-0.9,0.4-1.2c0.3-0.3,0.6-0.5,1-0.5c0.2,0,0.5,0,0.8,0.1l0.4-1c-0.5-0.1-0.9-0.2-1.3-0.2C88.5,96.3,87.8,96.5,87.3,97.1z "></path><path class="st2" d="M95,106.2c-0.5,0-0.8-0.1-1.1-0.4c-0.2-0.3-0.3-0.7-0.3-1.4v-3.9h2.1v-1.1h-2.1v-2.2l-1.4,0.5v1.6h-0.9v1.1 h0.9v4.4c0,0.7,0.2,1.3,0.6,1.7c0.4,0.5,0.9,0.7,1.6,0.7c0.7,0,1.3-0.1,1.9-0.2l-0.2-1.2C95.7,106.2,95.3,106.2,95,106.2z"></path><path class="st2" d="M106.6,64.4c0.7,0.9,2.6,2.6,7-1.7c4.5-4.3,2.2-2.5,4.7,3c2.5,5.5,4.1,2.4,4.2,1.3c0.3-2.7-0.6-8-1.2-10.1 c-0.5-1.8-3.6-2.6-4.9-1.7c-1.2,0.9-4.3,4.4-6.3,5.1c-2.1,0.7-0.5-1.3-1-4.6c-0.6-3.3-1.8-4.8-3.1-4.2c-0.9,0.4-2.7,2.3-3.7,1.9 c-2.1-0.8-4.8-3.2-10.5-0.4c-10.2,5.2-2.6-5.4-2.6-5.4s7.5-11.8,3.6-17.9c-3.9-5.9-10.8,4.5-12.5,7.8c-2.3,4.3-4,10.2-6,19.1 c-1.1,5.2-7.4,7.1-9,5.1c-1.7-2.2-1.4-10.8-7.3-7.1c-5.9,3.7-5.7,10.9-9.4,2.8c-3.7-8.1-7.4-2.8-7.8-1.9c-0.7,1.2-0.3,3.9-1.3,4.4 c-1.1,0.7-2.6-1.6-3.5-1.9c-0.9-0.3-6.9,4.7-9.5,9.9c-3.8,7.5-11.2-8.5-10.6-9.6c0.5-1,14.9-21,16.6-23.9c1.8-3.1,3.2-4.1,4.3-4.3 C38,29.9,51.7,26.6,62.2,16c8.9-8.9,8-11.7,6.2-14.2c-0.5-0.7-1.4-1.3-2.4-1.6c-5.3-1.8-17.6,9.6-18.8,10.7 c-1.8,1.8-12.7,13.9-13.5,15.5c-0.8,1.6-19.8,1.2-19.8,1.2c-2.2,1.1,0.3,2,0.3,2s8.6,1.1,13.9,0.9c4.6-0.2,1.9,2.8,1.2,3.7 C25.4,39.2,18.5,50,16,53c-2.4,2.9-6.9,0.1-8.2-0.1c-1.3-0.3-8.5-1.2-6.8,4.7c1.7,6,7.1,3.2,9.5,3.8c0.7,0.2,2.4,0.9,2.8,1.8 c0.9,2,2.1,4.2,3,5.8c1.6,2.5,8.7,9.3,13.5,0.1c5.3-10.1,9-6.4,9.3-0.9c0.4,5.4,2.1,3.4,4.1,2.5c2-0.9,0.2-4.6,0.4-9.6 c0.1-4.9,4.6,2.5,4.7,4.4c0.1,1.4,2.7,1.7,5.4,0.5c2.7-1.1,0-3.2,3.7-6.7c3.7-3.5,4.4,4.5,5.2,6.4c0.7,1.6,4.3,4.4,6.4,0.3 c1.9-3.6,5.7-2.4,5.8,2.8c0,4.3,3.2,5.2,4.4,5.3c0.4,0,0.9,0,1.6-0.3c2.4-1,6.1-6.2,6.1-10.8c-0.1-7.8,12.6-9,11.7-6.4 c-0.7,1.9-3.5,7.5,0,7.4c3.4-0.1,2-3.1,5.1-6.4C106.7,54.3,105.4,62.8,106.6,64.4z M44,18.2c2.4-2.3,4.2-4.1,5.7-5.6 c7.3-6.8,7.1-6.2,8.2-6.9c1.9-1.2,6.4-3.7,7.7-2.5c1.5,1.3,0.9,4.2-1.5,6.7c-2.4,2.6-9.3,9.5-15.3,12.9 C44.8,25.1,28.5,33.3,44,18.2z M7.2,58.9c-0.8,0.3-3.1-1.5-3-2.5c0.2-2,2.2,0,4.6-0.1C11.2,56.2,8,58.5,7.2,58.9z M78.1,54.3 c0.9-3.7,0.4-2.2,0.9-3.8c0.5-1.8,2.2-7.9,2.8-9.2c0.8-1.8,1-2.7,3.3-6c0,0,1.6-2,1.9-2.3c1.2-1.2,5.7-3.4,3.6,4.8 c-1.7,6.5-3.1,8-6,12.7c-0.6,0.9-1.6-1.2-3.7,1.5c-0.8,1.1-0.3,2.4-1.3,3.6C78.4,56.9,77.2,58,78.1,54.3z M84.8,59.9 c-0.8,2.9-2.1,7.5-3.2,9c-0.8,1-2.7,3.9-4.2-1.1c-1.5-5,2.1-9.2,2.1-9.2s1.5-2,2.5-2C83.1,56.6,85.5,57,84.8,59.9z"></path><path class="st2" d="M68.3,32.8c0,0-3.3-2.5-3.7,2.3c-0.4,4.8,2.6,3.2,2.6,3.2C72.7,35.3,68.3,32.8,68.3,32.8z"></path><path class="st2" d="M144.7,79.6c-0.3-0.7-1-1.7-3.3,1c-3.4,4.2-3.1,1.7-3.4-1.1c-0.1-0.5-0.4-2.6-2-3.5c-1.4-0.8-7.2-2.7-5.8-3.8 c3.6-2.8,3.5-2.6,4.5-3.8c1.3-1.4,5.4-6.7,5.1-12c-0.4-6.1-9.1-5.4-9.1-5.4c-6,0.9-3.3,6.2,0.9,5.5c4.6-0.7,3.5,3.3,3.2,4.4 c0,0-0.5,1.3-1.5,2.8c-1.3,2.1-3.3,4.8-4.5,6.1c-0.8,0.9-5.4,3.9-2.1,5.4c5.5,2.6,9.8,9,7,10.7c-2,1.2-17.5,8.4-21,9.9 c-3.4,1.5-10.9,4.2-10.8,11.4c0.1,7.8,10.8,7.7,13.2,7.3c6.8-1.2,10.4-4.9,13-8c2.2-2.7,7.3-13.5,7.9-15.4c0.5-1.6,2.5-7.7,5.4-8.5 C144.7,82,145.1,80.7,144.7,79.6z M133.5,90.3c0,0-5.7,12-6.4,13.1c-0.9,1.3-5.3,7.7-12,8.6c-6.7,1-10-1.6-10.1-5 c-0.1-3.2,2.1-5.3,9.4-8.8c16.4-8,17.2-8.4,17.2-8.4C132.7,89.3,135,87.8,133.5,90.3z"></path><path class="st2" d="M128.7,37.4c-1.5-0.6-5.7,1.7-4.4,5.4C125.7,46.5,135.3,40,128.7,37.4z"></path></g></svg>