<svg width="77" height="40" viewBox="0 0 77 40" fill="none" xmlns="http://www.w3.org/2000/svg">
<path d="M77 34.0035V32.9511H74.9159V32.0874H76.3717V31.0747H74.9159V30.3201H76.9601V29.2677H73.6195V34.0035H77V34.0035ZM70.0795 32.9015V30.3698H70.5382C70.8872 30.3698 71.1365 30.479 71.2961 30.6875C71.4556 30.896 71.5454 31.2037 71.5454 31.5909C71.5454 31.998 71.4656 32.3157 71.2961 32.554C71.1266 32.7923 70.8573 32.9114 70.4983 32.9114H70.0795V32.9015ZM70.4385 34.0035C70.8174 34.0035 71.1565 33.9539 71.4556 33.8447C71.7548 33.7355 72.0041 33.5766 72.2135 33.3681C72.4229 33.1596 72.5725 32.9015 72.6822 32.6036C72.7919 32.2959 72.8417 31.9484 72.8417 31.5512C72.8417 30.7768 72.6423 30.2109 72.2334 29.8337C71.8246 29.4564 71.2462 29.2677 70.4884 29.2677H68.7932V34.0035H70.4385V34.0035ZM67.796 34.0035V29.2677H66.5994V31.859H66.5894L65.1734 29.2578H63.7275V33.9936H64.9241V31.2236H64.9341L66.5196 33.9936H67.796V34.0035ZM61.4738 32.2561C61.4738 32.5143 61.404 32.7029 61.2744 32.8419C61.1348 32.9809 60.9553 33.0405 60.716 33.0405C60.4767 33.0405 60.2972 32.971 60.1875 32.8419C60.0678 32.7029 60.018 32.5143 60.018 32.2561V29.2677H58.7216V32.0079C58.7216 32.3356 58.7515 32.6334 58.8213 32.8916C58.8911 33.1497 59.0008 33.3681 59.1604 33.5468C59.3199 33.7255 59.5194 33.8546 59.7687 33.9539C60.018 34.0432 60.3271 34.0929 60.696 34.0929C61.065 34.0929 61.3741 34.0432 61.6334 33.9539C61.8927 33.8645 62.112 33.7255 62.2716 33.5468C62.4411 33.3681 62.5608 33.1497 62.6406 32.8916C62.7203 32.6334 62.7602 32.3356 62.7602 32.0079V29.2677H61.4639V32.2561H61.4738ZM58.3327 34.0035L56.7971 30.9555L58.1133 29.2578H56.7173L55.3811 31.1442H55.3711V29.2578H54.0748V33.9936H55.3711V32.7823L55.9395 32.0476L56.8868 33.9837H58.3327V34.0035ZM50.7541 31.2931V30.3201H51.3325C51.4023 30.3201 51.4621 30.3301 51.5319 30.34C51.6017 30.3499 51.6616 30.3698 51.7214 30.4095C51.7812 30.4393 51.8311 30.4889 51.871 30.5584C51.9109 30.618 51.9308 30.7073 51.9308 30.8165C51.9308 30.9258 51.9109 31.0151 51.861 31.0747C51.8211 31.1343 51.7613 31.1839 51.7015 31.2236C51.6416 31.2633 51.5619 31.2832 51.4921 31.2931C51.4123 31.303 51.3425 31.313 51.2727 31.313H50.7541V31.2931ZM53.4565 34.0035L52.5092 31.9285C52.7286 31.8094 52.9081 31.6505 53.0377 31.452C53.1673 31.2435 53.2371 30.9953 53.2371 30.7073C53.2371 29.7542 52.589 29.2777 51.2926 29.2777H49.4578V34.0134H50.7541V32.3058H51.3525L52.0305 34.0134H53.4565V34.0035ZM47.2141 32.2561C47.2141 32.5143 47.1443 32.7029 47.0147 32.8419C46.8751 32.9809 46.6956 33.0405 46.4563 33.0405C46.217 33.0405 46.0375 32.971 45.9278 32.8419C45.8081 32.7029 45.7583 32.5143 45.7583 32.2561V29.2677H44.4619V32.0079C44.4619 32.3356 44.4918 32.6334 44.5616 32.8916C44.6314 33.1497 44.7411 33.3681 44.9007 33.5468C45.0602 33.7255 45.2597 33.8546 45.509 33.9539C45.7583 34.0432 46.0674 34.0929 46.4363 34.0929C46.8053 34.0929 47.1144 34.0432 47.3737 33.9539C47.633 33.8645 47.8523 33.7255 48.0119 33.5468C48.1814 33.3681 48.3011 33.1497 48.3809 32.8916C48.4606 32.6334 48.5005 32.3356 48.5005 32.0079V29.2677H47.2042V32.2561H47.2141ZM42.6471 34.0035V30.3102H43.8437V29.2578H40.1641V30.3102H41.3607V34.0035H42.6471ZM37.9703 30.3201H37.9802L38.3691 31.9285H37.5814L37.9703 30.3201ZM40.2139 34.0035L38.8478 29.2677H37.1426L35.7765 34.0035H37.0828L37.3321 32.971H38.6184L38.8677 34.0035H40.2139ZM35.1881 34.0035V29.2677H33.9915V31.859H33.9815L32.5655 29.2578H31.1196V33.9936H32.3162V31.2236H32.3262L33.9117 33.9936H35.1881V34.0035Z" fill="white"/>
<path d="M73.4201 25.3458V24.3729H73.9985C74.0683 24.3729 74.1281 24.3828 74.1979 24.3927C74.2677 24.4026 74.3276 24.4225 74.3874 24.4622C74.4472 24.492 74.4971 24.5416 74.537 24.6111C74.5769 24.6707 74.5968 24.7601 74.5968 24.8693C74.5968 24.9785 74.5769 25.0678 74.527 25.1274C74.4871 25.187 74.4273 25.2366 74.3675 25.2763C74.3076 25.316 74.2279 25.3359 74.1581 25.3458C74.0783 25.3557 74.0085 25.3657 73.9387 25.3657H73.4201V25.3458ZM76.1225 28.0562L75.1752 25.9812C75.3946 25.8621 75.5741 25.7032 75.7037 25.5047C75.8333 25.2962 75.9031 25.048 75.9031 24.7601C75.9031 23.8069 75.255 23.3304 73.9586 23.3304H72.1238V28.0662H73.4201V26.3585H74.0185L74.6965 28.0662H76.1225V28.0562ZM70.3388 22.1489H69.3816V22.963H70.3388V22.1489ZM68.9428 22.1489H68.0054V22.963H68.9428V22.1489ZM69.8801 26.3089C69.8801 26.567 69.8103 26.7556 69.6807 26.8946C69.5411 27.0336 69.3616 27.0932 69.1223 27.0932C68.883 27.0932 68.7035 27.0237 68.5938 26.8946C68.4741 26.7556 68.4243 26.567 68.4243 26.3089V23.3205H67.1279V26.0607C67.1279 26.3883 67.1578 26.6861 67.2276 26.9443C67.2974 27.2024 67.4071 27.4208 67.5667 27.5995C67.7262 27.7782 67.9257 27.9073 68.175 28.0066C68.4243 28.0959 68.7334 28.1456 69.1023 28.1456C69.4713 28.1456 69.7804 28.0959 70.0397 28.0066C70.299 27.9172 70.5183 27.7782 70.6779 27.5995C70.8474 27.4208 70.9671 27.2024 71.0469 26.9443C71.1266 26.6861 71.1665 26.3883 71.1665 26.0607V23.3205H69.8702V26.3089H69.8801ZM64.4256 28.0562V26.1401H65.9413V25.1274H64.4256V24.3729H66.5396V23.3205H63.1392V28.0562H64.4256ZM60.5365 28.0562V23.3205H58.8812L58.0236 26.4181H58.0137L57.196 23.3205H55.5207V28.0562H56.7173V25.0579H56.7273L57.5151 28.0562H58.5522L59.3399 25.0579H59.3499V28.0562H60.5365ZM53.2471 26.3089C53.2471 26.567 53.1773 26.7556 53.0477 26.8946C52.9081 27.0336 52.7286 27.0932 52.4893 27.0932C52.25 27.0932 52.0705 27.0237 51.9608 26.8946C51.8411 26.7556 51.7913 26.567 51.7913 26.3089V23.3205H50.4949V26.0607C50.4949 26.3883 50.5248 26.6861 50.5946 26.9443C50.6644 27.2024 50.7741 27.4208 50.9337 27.5995C51.0932 27.7782 51.2927 27.9073 51.542 28.0066C51.7913 28.0959 52.1004 28.1456 52.4693 28.1456C52.8383 28.1456 53.1474 28.0959 53.4067 28.0066C53.666 27.9172 53.8853 27.7782 54.0449 27.5995C54.2144 27.4208 54.3341 27.2024 54.4138 26.9443C54.4936 26.6861 54.5335 26.3883 54.5335 26.0607V23.3205H53.2372V26.3089H53.2471ZM49.7969 28.0562V27.0038H47.7128V26.1401H49.1687V25.1274H47.7128V24.3729H49.757V23.3205H46.4164V28.0562H49.7969ZM45.519 24.3729C45.3594 23.9559 45.1201 23.6679 44.821 23.4992C44.5118 23.3304 44.1329 23.241 43.6842 23.241C43.4349 23.241 43.2055 23.2708 42.9961 23.3403C42.7867 23.4098 42.5972 23.4992 42.4477 23.6183C42.2981 23.7374 42.1784 23.8864 42.0887 24.0452C41.9989 24.214 41.959 24.3927 41.959 24.5913C41.959 24.899 42.0189 25.1572 42.1385 25.3359C42.2582 25.5245 42.4177 25.6734 42.5972 25.7827C42.7867 25.8919 42.9861 25.9812 43.1955 26.0309C43.405 26.0904 43.6044 26.1401 43.7939 26.1996C43.9833 26.2592 44.1329 26.3188 44.2526 26.3883C44.3722 26.4677 44.4321 26.567 44.4321 26.7159C44.4321 26.8549 44.3722 26.9641 44.2526 27.0336C44.1329 27.1031 43.9833 27.1428 43.8138 27.1428C43.5844 27.1428 43.405 27.0833 43.2653 26.9542C43.1257 26.8351 43.046 26.6663 43.0061 26.4677L41.8194 26.8351C41.8892 27.0733 41.989 27.2719 42.1086 27.4407C42.2283 27.6095 42.3679 27.7385 42.5274 27.8477C42.687 27.947 42.8665 28.0264 43.0659 28.0662C43.2653 28.1158 43.4847 28.1357 43.7241 28.1357C44.0033 28.1357 44.2625 28.1059 44.4919 28.0364C44.7212 27.9669 44.9306 27.8775 45.1002 27.7485C45.2697 27.6194 45.3993 27.4605 45.4891 27.2719C45.5788 27.0833 45.6287 26.8648 45.6287 26.6166C45.6287 26.3188 45.5688 26.0805 45.4492 25.9018C45.3295 25.7231 45.1799 25.5742 45.0004 25.4749C44.821 25.3657 44.6315 25.2862 44.4221 25.2366C44.2127 25.177 44.0232 25.1274 43.8437 25.0778C43.6642 25.0281 43.5146 24.9685 43.395 24.899C43.2753 24.8295 43.2155 24.7303 43.2155 24.5913C43.2155 24.4721 43.2653 24.3828 43.3651 24.3133C43.4648 24.2438 43.5745 24.214 43.7141 24.214C43.8836 24.214 44.0332 24.2537 44.1628 24.3431C44.2924 24.4324 44.3922 24.5615 44.462 24.7501L45.519 24.3729ZM39.865 26.3089C39.865 26.567 39.7952 26.7556 39.6655 26.8946C39.5259 27.0336 39.3464 27.0932 39.1071 27.0932C38.8678 27.0932 38.6883 27.0237 38.5786 26.8946C38.4589 26.7556 38.4091 26.567 38.4091 26.3089V23.3205H37.1127V26.0607C37.1127 26.3883 37.1426 26.6861 37.2125 26.9443C37.2823 27.2024 37.3919 27.4208 37.5515 27.5995C37.711 27.7782 37.9105 27.9073 38.1598 28.0066C38.4091 28.0959 38.7182 28.1456 39.0872 28.1456C39.4561 28.1456 39.7652 28.0959 40.0245 28.0066C40.2838 27.9172 40.5032 27.7782 40.6627 27.5995C40.8322 27.4208 40.9519 27.2024 41.0317 26.9443C41.1114 26.6861 41.1513 26.3883 41.1513 26.0607V23.3205H39.855V26.3089H39.865ZM36.1455 28.0562V23.3205H34.4901L33.6326 26.4181H33.6226L32.8049 23.3205H31.1296V28.0562H32.3263V25.0579H32.3362L33.124 28.0562H34.1611L34.9488 25.0579H34.9588V28.0562H36.1455Z" fill="white"/>
<path opacity="0.5" d="M37.5715 15.0305C37.4119 15.1397 37.2324 15.6361 37.3222 15.7354C37.4817 15.924 37.6911 15.9042 37.8008 15.6758C37.8407 15.5964 37.8706 15.517 37.8906 15.4376C37.9703 15.2291 37.9404 15.1496 37.751 15.0305C37.7011 14.9908 37.6413 14.9908 37.5715 15.0305ZM29.9131 22.1788C30.0128 22.0299 29.9131 21.8115 29.7436 21.7122C29.594 21.6228 29.4644 21.6626 29.3347 21.8214C29.2949 21.8711 27.48 24.8197 26.9515 25.753C26.752 26.0608 27.1011 26.577 27.4999 26.1104C27.5996 25.9714 29.1154 23.3206 29.1253 23.3206C29.1054 23.5092 28.9259 25.0183 28.9259 25.5842C29.0456 26.7458 29.8533 26.2593 29.6239 25.753C29.4444 25.4055 29.6339 24.4027 29.6738 23.9957C29.7236 23.5787 29.8034 22.3575 29.9131 22.1788ZM27.3105 17.5026C27.2307 17.1651 27.1409 16.8374 27.1609 16.49C27.1709 16.2517 27.1409 15.3978 27.5099 14.8518C27.9088 14.3653 28.5669 14.9411 29.0655 14.7128C29.7835 14.3653 29.8134 13.8987 29.8134 13.8193C29.8234 13.6803 29.7336 13.5909 29.594 13.6207C29.3746 13.6306 29.0854 13.8888 28.9458 14.0178C28.6068 14.3653 28.0185 13.8788 27.6495 13.8391C27.5298 13.8093 27.4401 13.859 27.3703 13.9682C27.111 14.5142 26.8617 14.7823 26.8617 14.683C26.8418 14.5142 26.7221 14.2065 26.4728 14.2958C26.3532 14.3355 26.3233 14.4348 26.3233 14.544C26.3133 14.8617 26.6623 17.4232 26.7221 17.6218C26.7919 18.009 27.4002 18.0785 27.3105 17.5026ZM27.1409 31.4617C27.0911 31.3426 27.1609 31.2632 27.1709 31.2532C27.2008 31.3029 27.2905 31.5213 27.3204 31.5709C27.3105 31.5809 27.2307 31.6603 27.1409 31.4617ZM27.4401 30.4193C27.6595 29.8931 28.3774 27.6393 28.8162 28.513C28.886 28.7017 28.9159 28.8903 28.9359 29.0789C29.0256 30.3398 28.5669 31.005 27.8589 31.4121C27.7991 31.283 27.5598 30.7866 27.48 30.6675C27.4301 30.5781 27.4002 30.5185 27.4401 30.4193ZM26.064 33.0304C25.8546 33.7254 26.4329 33.7254 26.5825 33.2389C26.6124 33.1694 27.0013 32.0574 27.0213 31.9581C27.1409 31.9879 27.2407 32.1071 27.3503 32.1071C27.5099 32.1071 27.5697 32.1865 27.6395 32.3056C28.3076 33.636 28.547 33.9636 29.235 33.914C29.5242 33.8743 29.8433 33.497 29.7635 33.2587C29.594 32.7425 29.245 33.775 28.547 32.8616C28.3376 32.5737 28.2279 32.256 28.1281 31.9184C28.2777 31.7893 29.0057 31.4915 29.2849 30.7171C29.5342 30.1313 29.614 29.5059 29.5641 28.8804C29.5541 28.3145 28.9857 27.1529 28.1481 27.9372C27.7293 28.4237 27.49 29.0889 27.3803 29.3371C27.3603 29.3966 27.3404 29.4463 27.2706 29.4661C27.0911 29.5158 27.0213 29.6548 26.9914 29.8136C26.9614 29.9725 26.8518 30.4788 26.8019 30.5483C26.5825 30.7866 26.5426 31.0646 26.5725 31.3624C26.5825 31.5014 26.5725 31.6305 26.5227 31.7596C26.3631 32.1865 26.2036 32.6035 26.064 33.0304ZM20.3501 27.4606C20.7689 26.9047 21.7262 25.7431 21.7262 25.7629C21.5368 26.2593 21.2974 26.9841 21.108 27.4805C21.0282 27.689 21.0083 27.7088 20.7789 27.6592C20.6692 27.6393 20.4698 27.5798 20.3501 27.4606ZM21.6564 27.5996C21.7262 27.1926 21.9257 26.8649 22.0952 26.5075C22.3545 26.7061 22.5838 26.8848 22.8431 27.0734C22.4642 27.3018 22.0952 27.5004 21.6564 27.5996ZM18.7746 29.3172C19.2433 29.208 19.7119 28.3244 19.9014 28.106C19.9014 28.106 20.0809 28.2549 20.6792 28.4336C20.6493 28.513 20.0211 30.3398 20.0211 30.4093C20.0211 30.5483 20.3601 31.005 20.7191 29.9228C20.759 29.8633 21.0083 29.1782 21.2077 28.6322C21.2775 28.4435 21.3872 28.3443 21.5866 28.3045C21.9656 28.2251 23.3118 27.4706 23.3317 27.4805C23.2818 27.6294 22.7234 28.9797 22.4941 29.5059C22.2248 30.1115 22.0154 30.6178 21.7462 31.2234C21.5467 31.6901 22.0653 31.9184 22.3146 31.4816C22.7733 30.6675 23.8702 27.9372 23.9799 27.6791C24.0198 27.5897 24.0796 27.55 24.1893 27.55C24.5882 27.5798 24.9272 27.5996 25.356 27.4904C24.4685 28.7215 23.7904 29.8136 23.2519 30.9951C23.1123 31.3029 22.9927 31.6206 22.9428 31.9581C22.9229 32.0673 22.9428 32.9807 23.7904 32.2659C23.9001 32.1666 25.715 30.2703 25.7848 30.2008C25.7648 30.2703 25.0169 32.1567 24.8674 32.534C24.5084 33.3977 25.0668 33.3183 25.1765 33.0602C25.2064 32.9907 26.1637 30.7965 26.6025 29.7739C26.752 29.5158 26.6124 28.791 26.0241 29.2676C25.5554 29.625 23.8004 31.4518 23.7405 31.5014C23.7605 31.3823 23.7904 31.2731 23.8403 31.1738C24.2591 30.2405 24.7577 29.347 25.356 28.523C25.695 28.0563 26.5127 27.2025 26.6124 26.855C26.6723 26.6565 26.5825 26.2196 26.1039 26.4976C25.5454 26.8649 24.9372 26.9146 24.289 26.7855C24.2192 26.7756 24.1394 26.726 24.0995 26.6664C24.0098 26.5274 23.9001 26.4877 23.7505 26.5472C23.6408 26.587 23.5511 26.5671 23.4613 26.5175C23.3118 26.4281 22.7234 25.9218 22.5738 25.7728C22.4941 25.6934 22.4841 25.6239 22.534 25.5246C22.6436 25.1573 22.7833 24.7403 22.873 24.4226C23.0226 23.8468 22.8929 23.5291 22.4243 24.0751C21.9356 24.7403 20.0809 26.9543 19.9712 27.0238C19.9313 27.0039 19.9114 26.9841 19.8815 26.9742C19.692 26.8649 19.5624 26.8947 19.4427 27.0734C19.323 27.2323 19.323 27.4011 19.3928 27.5798C19.4327 27.6791 19.4128 27.7486 19.343 27.8181C19.2931 27.8677 18.7746 28.4535 18.5751 28.6917C18.3358 28.93 18.4854 29.3172 18.7746 29.3172ZM16.5808 26.6465C16.4412 26.7855 16.5808 27.1827 16.9497 26.9047C17.2788 26.6465 17.7874 25.9913 17.7973 25.9913C17.7774 26.0409 17.2788 27.2224 17.2788 27.8776C17.2788 28.2152 17.5381 28.3641 17.8472 28.2251C18.4256 27.8975 19.8017 26.3685 21.796 23.261C21.8858 23.122 21.9257 22.8937 21.8459 22.7547C21.7462 22.5958 21.4769 22.6653 21.3473 22.7944C21.2775 22.8738 20.6293 24.0155 19.5723 25.4254C18.5353 26.855 18.0067 27.4309 17.927 27.4011C17.8073 27.3415 18.2959 25.9913 18.8344 24.5417C19.0338 24.0453 19.6621 23.2511 19.8116 23.0227C20.041 22.6653 19.5225 22.1093 19.2831 22.5164C19.2034 22.6355 18.5153 23.9957 18.1364 24.502C17.7076 25.1077 16.6506 26.5274 16.5808 26.6465ZM14.9454 10.6522C14.9255 10.7217 14.9255 10.7911 14.9255 10.8706C14.9255 10.9699 14.7958 11.228 14.7659 11.3074C14.6064 11.6648 14.4767 12.0322 14.4069 12.4194C14.1975 13.5512 13.9682 14.6731 13.7588 15.8049C13.6191 16.5396 13.5095 17.2842 13.5194 18.0288C13.5194 18.2373 13.5593 18.426 13.6291 18.6146C13.6989 18.7834 13.8186 18.8926 13.9981 18.9323C14.2075 18.972 14.5764 18.7337 14.2075 18.277C14.1277 18.2075 14.1078 18.1281 14.1078 18.0288C14.0679 17.6317 14.1576 17.0757 14.2075 16.7779C14.3072 16.1822 14.4169 15.4773 14.5266 14.8816C14.5366 14.8816 14.7659 13.3328 14.7659 13.3328C14.7659 13.3725 14.6163 15.0702 14.6163 15.1C14.5565 15.4971 14.5366 15.8843 14.5864 16.2815C14.8457 18.3962 15.434 18.5947 15.5537 18.6642C15.8129 18.8032 16.1919 18.7635 16.4013 18.1579C16.6406 17.4133 16.7702 16.6488 16.9098 15.8843C17.1691 14.4547 17.4084 13.025 17.6577 11.5854C17.7275 11.1883 17.7874 10.7911 18.1065 10.4933C18.2062 10.4039 18.1862 10.265 18.1065 10.1557C17.9569 9.92739 17.6677 9.90754 17.4982 10.116C17.4184 10.2252 17.3586 10.3642 17.3287 10.4933C17.1691 11.1684 17.0195 11.8435 16.8899 12.5286C16.6606 13.6902 16.5708 14.7029 16.3415 15.8645C16.2218 16.4602 16.0822 17.1949 15.8828 17.7806C15.7431 18.0983 15.4839 17.5721 15.4141 17.3636C15.2844 16.9268 15.2346 16.48 15.1947 16.0333C15.1548 15.1496 15.424 13.581 15.5337 12.608C15.5936 12.0719 15.6135 11.506 15.6434 10.9699C15.6434 10.9301 15.6035 10.6224 15.3343 10.4933C15.1748 10.4039 14.9953 10.4834 14.9454 10.6522ZM23.3317 7.28649C23.1123 7.51483 22.8929 7.73325 22.6835 7.97153C22.3944 8.29916 22.165 8.67644 21.9855 9.08349C21.7163 9.68912 21.5168 10.3047 21.4071 10.9599C21.3074 11.5556 21.1977 12.1612 21.088 12.7669C21.0681 12.7371 20.6991 10.2451 20.5895 9.50048C20.5895 9.50048 20.7889 9.52034 21.0482 9.27213C21.1778 9.15299 21.3772 8.79558 21.3274 8.38852C21.2476 8.02117 21.0182 6.80993 20.9584 6.47237C21.1678 6.46244 21.1578 6.46244 21.2177 6.62129C21.3473 6.99857 21.467 7.38577 21.6066 7.76304C21.8858 8.31902 22.3744 7.85239 22.2049 7.50491C22.0952 7.2567 21.8658 6.67094 21.8559 6.62129C22.2547 6.61137 23.232 6.939 23.3317 7.28649ZM21.4769 5.27105C21.3074 4.32787 21.5966 3.27548 21.6365 3.0372C22.0653 3.36484 22.3545 3.74211 22.3545 4.27823C22.3545 4.60586 22.2448 4.87393 21.9356 5.02285C21.7861 5.09235 21.6465 5.17177 21.4769 5.27105ZM26.8617 1.40898C26.8916 1.38912 26.9016 1.33948 26.9116 1.29976C26.9515 1.09127 26.8119 0.912564 26.5825 0.872851C26.413 0.833138 26.2435 1.16077 26.2435 1.16077C26.1039 1.68697 26.0141 2.23302 25.9543 2.77907C25.8845 3.41448 25.8645 4.03995 25.9144 4.67536C25.9643 5.80718 26.2933 6.57165 26.1936 6.57165C26.044 6.57165 24.5483 3.39462 24.1195 2.49115C23.9998 2.23302 23.8403 1.99474 23.6907 1.74653C23.6009 1.52811 22.8331 1.31962 23.1422 2.4713C23.2619 2.95778 24.2691 6.54187 24.3089 6.77022C24.1793 6.82979 24.0098 6.90921 23.8901 6.96878C23.8702 6.94893 23.6309 6.49223 23.0425 6.29366C22.6436 6.14474 21.6864 5.94617 21.6066 5.92632C21.826 5.54905 22.2847 5.57883 22.514 5.36041C22.863 5.07249 23.4414 3.77189 22.0753 2.65C21.9755 2.56065 21.2675 2.00467 21.0681 2.77907C21.0482 2.8585 20.7789 4.2683 20.9085 5.24127C20.9385 5.38027 20.9385 5.51926 20.9484 5.65826C20.8188 5.74761 20.7091 5.82704 20.5396 5.75754C20.4399 5.71783 20.1307 5.75754 20.2404 6.12488C20.2903 6.26388 20.6892 7.90203 20.7789 8.31902C20.7889 8.37859 20.9385 8.95443 20.4199 8.97428C19.9313 8.97428 19.4826 7.14749 19.4527 7.06806C19.2333 6.58158 18.7646 7.02835 18.8544 7.23684C18.4555 7.62404 18.0267 8.01125 17.9868 8.0311C17.7973 7.61412 17.6178 7.20706 17.4284 6.79007C17.5181 6.69079 18.7846 5.33062 19.323 4.78457C19.5424 4.56615 19.8515 4.31795 20.0909 4.10945C20.1607 4.05981 20.2305 4.0201 20.3302 4.03003C20.4498 4.03995 20.5396 3.97046 20.5895 3.86125C20.6293 3.76196 20.5994 3.65275 20.4997 3.5634C20.3601 3.44426 20.2105 3.42441 20.041 3.50383C19.4626 3.73218 18.0167 5.23134 16.5808 6.89928C16.3315 7.17728 15.6035 8.22967 15.454 8.44809C15.3742 8.56723 15.0052 8.89486 15.1947 9.12321C15.2645 9.22249 15.6035 9.55012 16.1221 8.47787C16.3514 8.07082 16.9797 7.27656 17.0295 7.20706C17.219 7.62404 17.3885 7.99139 17.568 8.36866C17.4184 8.46794 17.3287 8.59701 17.3985 8.77572C17.4782 8.97428 17.6677 8.95443 17.8372 8.9445C17.8771 9.014 18.4156 10.1756 18.4555 10.2153C18.6948 10.4933 19.0837 10.2054 18.964 9.96711C18.9441 9.90754 18.2959 8.59701 18.2959 8.57715C18.6848 8.1701 18.6449 8.16017 19.0338 7.75311C19.1934 8.15024 19.8515 9.38134 19.8515 9.4012C19.8216 9.55012 19.3829 10.8606 19.1036 11.8237C18.9541 12.3201 18.5751 13.4718 18.4854 13.5214C18.3757 13.3824 18.3258 13.2434 18.3159 13.0746C18.2959 12.4095 17.6877 12.5882 17.6976 12.9654C17.7076 13.303 17.7874 13.9384 18.2461 14.1072C19.1136 14.4249 19.2831 13.0647 19.7718 11.4663C19.9413 10.9004 20.0709 10.4437 20.0909 10.394C20.1008 10.4238 20.3102 11.8833 20.41 12.5981C20.4698 13.0349 20.5296 13.4618 20.6991 13.8788C20.9983 14.3752 21.5467 14.0178 21.6165 13.3427C21.7063 12.608 22.0653 9.00407 23.6209 7.74318C23.6209 7.74318 24.1494 8.04103 24.1195 7.45526C24.1195 7.45526 24.3688 7.34605 24.4286 7.31627C24.4485 7.36591 24.8175 8.68637 24.9771 9.30192C25.0568 9.60969 25.7249 9.60969 25.5155 9.00407C25.356 8.46794 25.1167 7.6439 24.9471 7.11771C24.9471 7.11771 25.2662 6.99857 25.2064 6.75036C25.1565 6.54187 24.8175 6.58158 24.7976 6.58158C24.5682 5.71782 24.0297 3.65275 24.0397 3.69247C24.2192 4.10945 25.2563 6.12488 25.4657 6.47237C25.6153 6.72058 26.074 7.7134 26.6124 7.59426C26.9216 7.47512 26.7919 6.80993 26.752 6.60144C26.6124 5.87668 26.5227 5.15192 26.4728 4.41723C26.403 3.47405 26.4828 2.55072 26.7221 1.6274C26.762 1.5579 26.782 1.46854 26.8617 1.40898ZM20.0211 5.65826C19.9812 5.46962 19.8815 5.03278 19.8715 5.02285C19.8116 4.91364 19.2831 4.76472 19.4327 5.1817C19.4826 5.3207 19.6421 5.76747 19.692 5.83696C19.7618 5.91639 20.031 5.93625 20.0211 5.65826ZM19.0338 6.4128C19.1535 6.51208 19.3829 6.52201 19.343 6.38302C19.2333 6.16459 19.1236 5.66818 19.1236 5.65826C18.9541 5.39019 18.7247 5.59869 18.7247 5.71783C18.7247 5.99582 18.8444 6.21424 19.0338 6.4128ZM28.8162 3.29534C28.5669 3.39462 28.2279 3.50383 27.9786 3.54354C27.9487 3.18613 28.1281 1.31962 28.2777 0.912564C28.4373 1.60754 28.6666 2.63015 28.8162 3.29534ZM33.842 0.158018C33.1739 0.396296 30.8305 1.20048 30.8305 1.20048C30.4516 0.793425 30.1524 1.23027 30.2322 1.4189C29.8333 1.56783 29.4345 1.68697 29.0156 1.79618C28.9957 1.70682 28.7863 0.813282 28.6965 0.426081C28.6367 0.0686647 28.1581 -0.338392 27.8888 0.465794C27.6395 1.2402 27.5099 2.03445 27.4202 2.83864C27.3902 3.1067 27.3703 3.36484 27.3404 3.6329C27.1509 3.66268 26.9714 3.7024 26.9315 3.92082C26.8916 4.14917 27.0512 4.23852 27.2407 4.30802C27.2307 4.4073 27.2307 4.49665 27.2207 4.59594C27.1908 4.93349 27.1509 5.27105 27.1409 5.61854C27.131 5.90646 27.1409 6.20431 27.1609 6.49223C27.1709 6.67094 27.2905 6.76029 27.47 6.76029C27.6694 6.76029 27.829 6.60144 27.829 6.39294C27.7093 5.55897 27.8888 4.44701 27.9088 4.23852C28.2478 4.13924 28.6666 4.01017 29.0057 3.91089C29.0456 4.0201 29.4245 5.22141 29.7436 5.53912C30.1225 5.86675 30.3718 5.29091 30.1225 5.13206C30.0727 5.08242 30.0328 5.01292 30.0029 4.94342C29.8134 4.54629 29.5242 3.74211 29.5142 3.69247C29.584 3.65275 29.9131 3.47405 30.0228 3.41448C30.1624 3.33505 30.1624 2.95778 29.7137 3.0372C29.594 3.06699 29.4743 3.09677 29.3347 3.13649C29.2749 2.91807 29.225 2.70957 29.1752 2.49115C29.594 2.30252 29.9929 2.15359 30.4217 2.00467C30.5214 2.4018 31.708 6.8 31.718 6.82979C31.9474 7.17727 32.3363 6.91914 32.2465 6.58158C32.1867 6.35323 31.0299 2.14366 30.9502 1.8061C31.01 1.77632 33.134 1.04163 34.1112 0.714C34.6896 0.594861 34.5001 -0.110044 33.842 0.158018ZM35.2381 3.09677C35.2281 2.86842 35.2281 2.65 35.2381 2.42165C35.3079 1.64725 34.56 1.71675 34.6098 2.25287C34.6198 2.48122 34.6298 2.69964 34.6298 2.92799C34.6298 3.11663 34.6397 3.30527 34.6397 3.4939C34.6397 3.72225 34.7096 4.84414 34.6996 5.33062C34.6497 5.99582 34.1312 5.91639 33.9517 5.67811C33.4332 4.96328 33.1938 3.00742 32.9844 2.37201C32.9146 2.0146 32.1667 1.95503 32.3263 2.48122C32.4659 2.80885 32.6055 3.13649 32.6952 3.47405C32.8448 4.03003 33.0642 6.23409 34.181 6.50216C34.6098 6.61137 35.2879 6.36316 35.2979 5.41998C35.2879 4.64558 35.258 3.87118 35.2381 3.09677ZM24.628 10.265C24.638 10.3642 24.5483 11.0989 24.4585 11.2478C24.299 11.5258 24.1993 11.6549 23.8502 12.1116C22.9029 13.0449 23.4913 11.1287 23.6707 10.8408C24.3887 9.7189 24.628 10.1955 24.628 10.265ZM20.7689 16.6687C20.6593 16.6786 20.39 16.7282 20.2205 16.1127C19.9014 15.1596 20.4 15.0007 20.5595 15.239C20.8288 15.5468 20.9883 15.9042 21.1977 16.2417C21.3872 16.5098 20.9085 16.6587 20.7689 16.6687ZM18.3258 17.6913C17.4683 18.2572 18.1663 15.8943 18.3757 15.4872C18.4355 15.378 18.6948 14.9312 18.7945 15.1596C19.0737 16.0333 18.7945 17.3736 18.3258 17.6913ZM35.3178 6.77022C34.919 6.8695 34.56 7.04821 34.201 7.21699C33.9417 7.35598 34.0614 7.66376 34.0714 7.70347C34.0115 7.79282 33.7423 8.31902 33.1141 8.54737C32.9146 8.6268 32.6853 8.51758 32.5955 8.31902C32.5058 8.11053 32.4659 7.89211 32.5955 7.67369C32.7052 7.47512 32.6155 7.29641 32.3861 7.24677C32.1169 7.1872 31.9573 7.27656 31.8476 7.53469C31.6283 8.07082 31.4388 8.56723 31.0499 8.99414C30.322 9.63947 30.4516 8.39845 30.8305 7.82261C31.0399 7.37584 30.4616 7.26663 30.2621 7.49498C30.1724 7.5744 29.9929 7.87225 29.953 7.89211C29.594 8.12046 28.7065 8.58708 28.6567 8.60694C28.6567 8.53744 28.9159 6.08517 28.9758 5.7079C29.0057 5.51926 29.0655 5.41998 28.876 5.37034C28.7963 5.35048 28.7165 5.34055 28.6367 5.35048C28.4472 5.37034 28.3575 5.47955 28.3575 5.66818C28.3575 5.77739 28.3575 5.88661 28.3475 5.99582C28.2478 6.74043 28.168 7.48505 28.1481 8.22967C28.1381 8.46794 28.1282 8.70622 28.1182 8.93457C28.0284 9.014 27.9387 9.03385 27.829 9.00407C26.4928 8.73601 26.7221 9.51041 27.0312 9.57991C27.0911 9.60969 27.1808 9.6494 27.2506 9.67919C27.2207 9.74869 26.752 10.5628 26.4728 11.0096C26.3731 11.1684 25.6053 12.4095 25.3161 11.367C25.1765 10.7514 25.2064 10.2352 25.1466 9.90754C25.0768 9.62955 24.9073 9.51041 24.6181 9.50048C24.3089 9.49055 24.0497 9.58983 23.8502 9.82811C23.6807 10.0267 23.5311 10.2252 23.3816 10.4337C23.1223 10.8209 22.9528 11.2478 22.8531 11.7145C22.6835 11.7244 22.6038 11.8336 22.5639 11.9825C22.514 12.1315 22.4542 12.2705 22.4243 12.4194C22.2847 12.9853 22.155 13.5413 22.0354 14.1072C21.9257 14.6234 21.7063 15.5964 21.5168 15.7652C21.3972 15.5766 20.8088 14.5738 20.3601 14.5043C20.0909 14.4348 19.8615 14.5837 19.7718 14.8617C19.682 15.1397 19.672 15.4276 19.692 15.7155C19.7119 16.1028 19.8017 16.4701 20.0011 16.8176C20.2404 17.2842 20.7789 17.3338 20.8288 17.3438C20.38 18.4756 20.1607 17.592 20.0709 17.3736C19.9513 17.0856 19.8715 16.8474 19.4028 16.7382C19.4028 16.6587 19.4427 15.6461 19.4427 15.239C19.4427 15.0106 19.3529 14.8121 19.1834 14.6532C18.8344 14.3355 18.2062 14.2462 17.7973 15.4673C17.6777 15.8943 17.558 16.3212 17.4782 16.758C17.4184 17.0658 17.4084 17.3835 17.4184 17.7012C17.5082 18.6742 18.3059 18.3267 18.4455 18.2969C18.4355 18.3366 18.3657 18.5451 18.3558 18.5947C18.3059 18.8529 18.7447 19.1408 18.9541 18.6245C19.0638 18.2671 19.1535 17.8998 19.2532 17.5324C19.2732 17.4728 19.2732 17.1651 19.4327 17.5324C19.5225 17.7211 19.8715 18.3664 19.9812 18.4657C20.2903 18.7238 20.7091 18.6742 20.9484 18.3565C21.0581 18.2075 21.5667 17.2445 21.6066 17.1949C21.6664 17.3835 21.9057 18.426 22.5439 19.0117C22.9428 19.3791 23.3816 19.0614 23.0525 18.6642C22.8331 18.3068 21.9755 17.7409 22.3644 16.2715C22.4741 16.0333 22.873 15.5865 23.1123 15.3383C23.4713 14.8915 23.4913 15.2291 23.4813 15.3085C23.3915 15.9737 23.2918 16.6488 23.212 17.314C23.1821 17.5622 23.1722 17.8203 23.1921 18.0785C23.2719 18.7834 24.0098 18.6841 24.2691 18.3862C24.6181 18.0189 25.1865 15.9141 25.1964 15.8645C25.1964 16.0035 24.987 17.3438 24.987 17.6516C24.997 17.9494 25.0668 18.1678 25.3261 18.3366C25.6053 18.4955 26.3033 18.0288 26.2534 17.7707C26.1936 17.5423 25.8945 17.7211 25.705 17.7905C25.6152 17.8005 25.5654 17.6416 25.6452 17.1154C25.7249 16.2815 25.7648 14.7525 25.7848 14.5242C25.7947 14.2958 25.715 14.1866 25.5853 14.1568C25.4258 14.1171 25.336 14.1866 25.2563 14.3554C25.1466 14.5937 24.1693 17.1452 24.0696 17.4033C24.0497 17.4629 23.8702 17.8998 23.7804 17.87C23.581 17.8402 24.0896 14.8915 24.0596 14.6731C24.0098 14.3752 23.7306 14.1866 23.4115 14.3554C23.2918 14.415 23.1622 14.4944 23.0525 14.5738C22.8929 14.6929 22.6736 14.8915 22.524 15.0206C22.5938 14.3455 22.7434 13.2335 22.9229 12.886C23.0724 13.025 23.2619 13.0151 23.3616 13.0051C23.6907 12.9654 23.9599 12.7967 24.1594 12.5286C24.1693 12.5187 24.6779 11.9031 24.7876 11.8535C24.8474 11.9329 25.0169 12.3797 25.5454 12.4194C26.5027 12.469 27.2407 10.7812 27.7093 9.99689C27.7392 9.94725 27.7891 9.89761 27.829 9.83804C27.9487 10.0366 28.0783 10.1458 28.0783 10.3642C28.0783 10.4635 28.1082 10.8805 28.1082 10.9798C28.1381 11.5159 27.819 12.8761 28.537 12.7569C28.9259 12.6676 28.7464 11.8733 28.6866 11.0592C28.6267 10.1756 28.6666 9.27213 28.6666 9.27213C28.9558 9.10335 29.8234 8.63672 29.8632 8.60694C29.8832 8.82536 29.8832 9.02392 29.9131 9.22249C29.9929 9.65933 30.2521 9.87775 30.7009 9.7884C31.01 9.72883 31.369 9.59976 31.9673 8.67644C31.9872 8.70622 32.2665 9.28206 33.0343 9.12321C33.9716 8.86507 34.3605 8.15024 34.4004 8.09067C34.54 8.38852 34.5999 8.6268 34.4603 9.58983C34.4303 10.1359 35.0685 10.0267 35.0885 9.65933C35.0985 9.35156 35.0985 8.93457 35.0885 8.63672C35.0486 8.06089 34.889 7.72333 34.8691 7.60419C35.0486 7.52476 35.3278 7.42548 35.4874 7.34606C35.966 7.15742 35.9461 6.64115 35.3178 6.77022ZM37.0729 3.54354C37.1227 2.96771 38.0501 1.89546 38.2296 2.0146C38.4091 2.14366 37.8507 3.16627 37.0729 3.54354ZM39.9946 5.69797C39.8251 5.61854 39.6456 5.53912 39.4861 5.43983C38.8379 5.04271 38.1399 4.75479 37.4019 4.55622C37.2524 4.51651 37.1128 4.46687 36.9233 4.4073C36.9931 4.3378 37.2723 4.10945 37.372 4.03996C37.721 3.79175 38.0501 3.52369 38.3194 3.18613C38.6185 2.79893 38.808 2.38194 38.8379 1.88553C38.8578 1.54797 38.4191 1.29976 38.1498 1.42883C37.2025 1.93517 36.6541 2.79893 36.5045 3.78182C36.4845 3.8811 36.4446 3.9506 36.3649 4.00024C35.268 4.46687 36.2352 4.82429 36.2951 4.85407C36.2751 4.97321 35.9859 5.74761 36.5145 8.78565C36.6241 9.46077 37.2324 9.25227 37.1526 8.77572C37.0828 8.33888 36.7637 6.44259 36.7837 5.8866C36.7937 5.6384 36.8236 5.26113 36.8336 5.01292C36.8734 5.00299 38.2495 5.28098 39.516 6.22417C40.0943 6.45251 40.3337 5.83696 39.9946 5.69797ZM44.5218 10.7415C44.4321 10.7316 44.3124 10.7316 44.2227 10.7316C44.1529 10.7316 43.8238 10.7514 43.8537 10.4139C43.8737 10.2848 44.0831 9.88768 43.9135 9.61962C43.7839 9.39127 43.5845 9.36148 43.405 9.55012C42.8665 10.1756 42.1585 10.8805 42.0688 10.8209C41.999 10.7812 42.0488 10.6422 42.0787 10.5429C42.1386 10.3146 42.3978 9.70897 42.2981 9.38134C42.1685 9.05371 42.0189 8.97428 41.7397 9.20263C41.4605 9.44091 41.1912 9.69904 40.922 9.95718C39.516 11.3769 38.1199 13.849 38.09 13.9086C37.9504 14.1667 38.2097 14.3951 38.3792 14.1965C38.7083 13.7299 39.0872 13.1541 39.4163 12.6874C40.0046 11.8435 40.6328 11.1783 41.3009 10.4139C41.3408 10.3642 41.4106 10.2451 41.4704 10.2947C41.5004 10.3642 41.4206 10.8209 41.4306 10.9897C41.4405 11.1585 41.5203 11.3074 41.63 11.4266C41.8195 11.635 42.0688 11.635 42.3879 11.4464C42.6671 11.2776 43.1357 10.7514 43.2255 10.6621C43.2853 10.811 43.385 10.9599 43.5047 11.0989C43.8039 11.367 44.3922 11.3074 44.6215 10.9897C44.7013 10.8706 44.6614 10.7614 44.5218 10.7415Z" fill="white"/>
<path d="M12.9111 18.4456C13.1604 17.6712 10.1389 18.3066 10.2387 18.2172C10.2885 17.9194 10.3085 18.0187 10.2087 17.8896C10.0691 17.7109 9.58051 17.7506 9.31127 17.969C9.14175 18.0981 8.71296 18.9618 8.69302 19.0909C8.65313 19.3093 8.68305 19.5079 8.93234 19.637C9.3013 19.8157 9.46085 19.8256 9.9395 19.5675C11.2358 18.8229 11.8242 19.2101 12.7516 18.6938C12.8014 18.6144 12.8513 18.5349 12.9111 18.4456ZM22.4541 20.461C21.9456 20.4014 21.6165 20.2029 21.3473 19.766C21.1578 19.5178 20.7888 18.942 20.1806 19.2299C20.031 19.3093 18.7147 20.1334 18.2061 20.461C17.2588 21.0964 17.4882 19.1902 16.85 19.5476C16.7901 19.5675 14.9653 20.8979 14.3171 21.3446C13.669 21.8212 13.3199 21.4638 13.1704 21.2056C12.8014 20.6099 13.659 19.6469 12.7216 19.4483C11.6247 19.1703 10.7372 22.2183 9.85972 22.0197C8.80271 21.8212 9.63037 20.5603 8.90243 20.5107C7.97505 20.3915 7.43657 22.397 6.31973 22.6452C6.14023 22.6849 5.36243 22.7544 5.56187 22.2183C6.68868 19.4483 7.62604 16.5691 8.90243 14.0176C10.1788 11.2873 11.3754 10.2746 11.7344 9.75838C12.582 8.8152 11.6148 6.62106 10.0392 8.70599C9.79989 9.10312 9.56057 9.49032 9.34119 9.89738C7.97505 12.3794 6.51916 16.311 4.54474 20.1632C4.46497 20.322 3.58745 22.2481 3.23843 22.258C3.19855 22.2481 2.54041 22.0595 2.30108 22.1091C1.74266 22.2282 0.97483 22.5658 1.10446 23.8465C1.26401 24.5713 2.04182 24.5415 2.06176 24.8493C2.12159 25.028 2.06176 25.306 1.99196 25.4748C1.79252 25.9414 0.376521 29.0291 0.266831 29.7042C0.0973103 30.4984 0.386493 31.0147 0.805309 31.1339C1.623 31.3225 1.59308 31.1041 2.13156 29.5553C2.24125 29.2078 3.71708 25.9712 4.14587 25.2464C4.97353 23.916 7.46649 23.2111 7.8853 23.4891C8.10468 23.5884 9.07195 24.0451 9.71015 23.916C10.3284 23.7473 10.7273 23.3104 10.8868 23.1813C11.176 22.7941 11.7743 23.4395 12.1433 23.499C13.3598 23.6182 15.4539 21.4737 15.7431 22.3672C15.8428 22.5062 15.6434 23.6678 15.6234 23.926C15.6035 24.1345 15.9625 24.5812 16.3015 24.2734C16.4611 24.1047 17.9967 22.0396 19.672 20.9177C20.1307 20.4908 20.8287 21.1957 20.9484 21.2851C21.4171 21.6325 21.8758 21.6822 22.3644 21.3645C22.6336 21.1858 23.0026 20.5206 22.4541 20.461ZM44.4021 7.36568C44.4121 7.11747 44.4719 4.35743 42.4776 4.95312C41.8294 5.18147 40.8222 6.10479 40.4632 6.51185C39.9148 7.13733 39.3564 7.75288 38.8378 8.39821C37.6911 9.80802 36.654 11.2973 35.6967 12.8361C35.2679 13.5212 34.8092 14.1963 34.3605 14.8714C34.2608 15.0303 33.9317 15.3182 33.7522 14.792C33.5229 14.1367 33.2436 13.8587 34.171 11.4363C34.2707 11.1086 34.0813 10.8803 33.7422 10.8803C33.6724 10.8803 33.1539 10.9696 33.0043 10.8505C32.7052 10.7711 32.5556 10.1257 32.1168 10.1059C31.8576 10.0662 31.0598 10.0662 30.9302 10.5526C30.8903 10.7214 30.8604 10.9001 30.8105 11.0689C30.7706 11.2178 30.8704 11.5157 30.9402 11.6447C31.6781 12.6078 31.8775 12.9156 31.7878 13.3723C31.7578 13.6701 30.7706 15.0799 30.4515 15.5565C29.7934 16.5394 27.1908 19.8653 26.6722 20.6298C25.8944 21.8112 25.6551 21.424 25.5653 21.2156C25.5155 21.1063 25.3659 20.5404 25.3061 20.3915C25.1964 20.1532 24.9571 20.0837 24.7377 20.2227C23.9798 20.8284 23.8801 22.7048 23.9898 23.638C24.1294 24.5514 24.4585 24.9188 24.638 25.0379C25.1764 25.4847 25.9044 24.3727 26.0739 24.1543C27.9885 21.6325 31.9772 16.3904 32.067 16.2812C32.1368 16.5394 32.4858 17.1946 32.3462 17.979C32.2265 18.7831 32.0371 19.5675 31.7479 20.3319C31.5983 20.7191 31.1795 21.702 31.1396 21.8112C31.0698 22.0396 31.1196 22.5062 32.0869 22.3077C33.0741 22.1587 33.5029 21.0766 33.5827 20.8979C34.0912 19.7958 34.5898 18.6839 35.0984 17.5818C35.4474 16.8074 35.7565 16.0132 36.1654 15.2685C37.1825 13.3822 38.3293 11.5752 39.5857 9.83781C40.1043 9.11305 40.6328 8.38829 41.2211 7.72309C41.4604 7.45503 42.0288 6.8097 42.3878 6.72034C43.3152 6.4225 42.5773 7.92166 43.6143 8.15001C44.0531 8.19965 44.3822 7.80252 44.4021 7.36568ZM36.9731 20.1135C36.664 20.1632 36.4745 19.9547 36.4745 19.5476C36.5443 18.5449 37.8407 18.0782 38.1498 18.0584C38.3592 18.0286 38.5088 18.1477 38.5885 18.3264C39.0672 19.3093 37.5116 20.0837 36.9731 20.1135ZM61.1747 17.3237C61.1847 17.1351 61.1249 17.0457 60.9254 17.0358C60.4867 17.006 59.8784 17.1351 59.8485 16.5592C59.7986 16.3408 60.0778 15.3579 60.1676 15.0501C60.1975 14.9409 60.3869 13.829 58.2231 16.0529C57.8541 16.4103 57.4851 16.8769 57.0264 17.2443C56.7971 17.3634 56.458 17.4428 56.458 16.5592C56.4082 15.9933 55.6703 16.4103 55.5706 16.4599C54.8825 16.8372 54.0947 17.4428 52.9779 17.84C52.5192 17.8797 52.3197 17.6513 52.4095 17.2045C52.4593 16.9663 52.6388 16.2316 52.6388 16.0926C52.6289 15.765 52.4294 15.5962 52.1103 15.6557C51.7912 15.7153 51.5918 15.8642 51.4223 16.1422C51.3226 16.3011 50.7342 17.4726 50.2356 17.9194C49.8567 18.3066 49.4179 18.4853 48.8795 18.4257C47.9222 18.1676 48.69 17.1549 48.7299 16.4996C48.7698 16.2415 48.6202 16.0926 48.3609 16.1025C47.3937 16.0529 46.9549 18.7931 44.4819 19.1108C42.9861 19.2994 45.4591 15.2983 46.1073 14.0871C46.6258 12.5979 51.9608 12.1511 55.8298 10.9696C56.7572 10.642 57.0364 10.4633 56.9267 10.1754C56.8071 9.83781 55.9894 9.92716 55.0022 10.0959C52.8881 10.5229 48.2014 11.4958 48.0717 11.5256C47.5333 11.5355 47.3338 11.3072 47.4335 10.8803C47.4734 10.6817 47.9521 9.6591 48.351 8.66628C48.5803 7.94152 47.982 7.42525 47.1942 8.7457C46.6956 9.61939 46.197 10.4831 45.7184 11.3668C45.519 11.7341 45.2198 11.9525 44.8209 12.0717C43.5146 12.439 40.4333 13.3425 40.194 13.4418C38.9076 14.1665 39.4062 15.0104 39.9248 14.8913C40.0444 14.8813 42.6072 14.236 43.8537 13.9084C44.4221 13.7595 44.3622 13.9382 44.3323 14.0772C44.3124 14.1665 42.4177 18.4555 41.0616 18.9817C40.9818 19.0313 40.2738 19.5476 40.2439 18.5051C40.2538 18.0385 40.3236 17.5918 40.4134 17.1351C40.5031 16.6982 40.184 16.3904 39.7453 16.4798C39.6356 16.4996 39.4661 16.6188 38.3293 16.6585C37.8706 16.7081 37.4518 16.8372 37.0828 17.1251C34.4901 18.9817 34.7893 20.6496 34.9588 20.9276C35.7067 22.1786 37.1925 21.6921 37.5714 21.6127C38.07 21.4935 38.4988 21.2156 38.8977 20.8979C39.3663 20.4709 39.8849 20.7191 40.0544 20.7886C40.4433 20.9376 40.8123 20.8979 41.1513 20.6894C42.2681 19.8157 42.2681 19.8752 42.5573 20.1433C42.8066 20.3717 43.1257 20.5901 43.4548 20.6596C44.3223 20.9177 46.0076 20.0043 46.2768 19.8852C47.0746 19.5774 47.1244 20.4709 47.8723 20.5107C48.6401 20.5206 49.5775 20.044 50.0162 19.8256C50.5049 19.5774 50.4051 20.1929 51.2428 19.9944C52.24 19.7164 53.4266 18.8824 53.8554 18.7236C54.9623 18.1676 55.042 18.7136 54.9922 18.8923C54.9523 19.0115 54.3939 19.8852 54.2842 20.2525C54.2642 20.5007 54.713 20.4412 54.8825 20.4412C55.1617 20.4114 55.5107 20.2128 56.1589 19.6767C57.4951 18.3761 58.3627 17.83 58.5721 17.7307C58.8014 17.6215 59.0707 17.6116 59.2801 17.7903C59.5094 17.9889 59.7787 18.1279 60.0778 18.1676C60.6263 18.2371 61.1348 17.8499 61.1747 17.3237Z" fill="white"/>
<path d="M50.6746 39.9998V36.0285H50.6845L52.9581 39.9998H53.3669V35.542H52.9182V38.9772H52.8983L50.9438 35.542H50.2358V39.9998H50.6746ZM48.0221 39.9998H48.5206V35.542H48.0221V39.9998ZM46.7257 39.9998V39.5828H44.6017V35.542H44.1031V39.9998H46.7257ZM40.1643 39.9998V37.9744H41.2113L42.1187 39.9998H42.6572L41.7099 37.8751C42.2384 37.7063 42.5974 37.3489 42.5974 36.7135C42.5974 35.9689 42.0689 35.542 41.1016 35.542H39.6657V39.9998H40.1643ZM40.1643 35.9689H41.0617C41.6999 35.9689 42.1088 36.1476 42.1088 36.7433C42.1088 37.3092 41.7498 37.5574 41.0717 37.5574H40.1742V35.9689H40.1643ZM35.5772 35.542V39.9998H38.3893V39.5828H36.0758V37.8751H37.6314V37.4581H36.0758V35.959H38.2596V35.542H35.5772ZM31.6085 35.9689H32.6754C33.2438 35.9689 33.523 36.2072 33.523 36.7036C33.523 37.0809 33.2339 37.4581 32.486 37.4581H31.6184V35.9689H31.6085ZM31.6085 37.8751H32.466C33.174 37.8751 33.6327 38.2127 33.6327 38.7786C33.6327 39.3346 33.2737 39.5828 32.5458 39.5828H31.6184V37.8751H31.6085ZM31.1099 39.9998H32.4959C33.7125 39.9998 34.1213 39.4736 34.1213 38.7985C34.1213 38.2425 33.7624 37.7957 33.2638 37.6766L33.2538 37.6666C33.7923 37.478 34.0117 37.1305 34.0117 36.644C34.0117 36.0384 33.543 35.542 32.7552 35.542H31.1099V39.9998V39.9998Z" fill="white"/>
</svg>
